<svg width="512" height="512" viewBox="0 0 512 512" fill="none" xmlns="http://www.w3.org/2000/svg">
  <defs>
    <linearGradient id="g1" x1="96" y1="72" x2="424" y2="444" gradientUnits="userSpaceOnUse">
      <stop stop-color="#2059D6" />
      <stop offset="1" stop-color="#0EA5A4" />
    </linearGradient>
    <linearGradient id="g2" x1="168" y1="160" x2="344" y2="352" gradientUnits="userSpaceOnUse">
      <stop stop-color="#FFFFFF" stop-opacity="0.98" />
      <stop offset="1" stop-color="#DFF8F0" stop-opacity="0.96" />
    </linearGradient>
  </defs>
  <rect x="32" y="32" width="448" height="448" rx="120" fill="url(#g1)" />
  <circle cx="380" cy="132" r="66" fill="#FFFFFF" fill-opacity="0.14" />
  <circle cx="138" cy="378" r="84" fill="#FFFFFF" fill-opacity="0.1" />
  <rect x="166" y="104" width="180" height="304" rx="58" fill="url(#g2)" />
  <rect x="192" y="218" width="128" height="40" rx="20" fill="#2059D6" fill-opacity="0.12" />
  <rect x="232" y="168" width="48" height="136" rx="24" fill="#0EA5A4" />
  <rect x="212" y="188" width="88" height="48" rx="24" fill="#0EA5A4" />
  <path d="M256 322C274 322 288 336 288 354C288 372 274 386 256 386C238 386 224 372 224 354C224 336 238 322 256 322Z" fill="#2059D6" fill-opacity="0.16" />
  <path d="M175 154C196 133 225 122 256 122C287 122 316 133 337 154" stroke="#FFFFFF" stroke-opacity="0.32" stroke-width="16" stroke-linecap="round" />
  <path d="M175 358C196 379 225 390 256 390C287 390 316 379 337 358" stroke="#FFFFFF" stroke-opacity="0.28" stroke-width="16" stroke-linecap="round" />
  <text x="256" y="154" text-anchor="middle" font-family="Manrope, Arial, sans-serif" font-size="28" font-weight="800" fill="#102135">FH+</text>
</svg>